# xmcd CD database file
#
# Track frame offsets:
#	150
#	11632
#	21670
#	29762
#	45037
#	59375
#	73935
#	106167
#	114912
#	125622
#	137397
#	150925
#
# Disc length: 2172 seconds
#
# Revision: 0
# Processed by: cddbd v1.5PL3 Copyright (c) Steve Scherf et al.
# Submitted via: CDex 1.51
#
DISCID=98087a0c
DTITLE=日本大学 - 日本大学歌集
DYEAR=1997
DGENRE=Other
TTITLE0=日本大学校歌
TTITLE1=日本大学応援歌 花の精鋭
TTITLE2=日本大学応援歌 輝く日大
TTITLE3=日本大学応援歌 水の覇者 日大
TTITLE4=日本の歌 桜の木下で
TTITLE5=日本大学賛歌
TTITLE6=日大節
TTITLE7=日本大学工科の歌 若きエンジニアの歌
TTITLE8=行進曲 日大医科学生歌
TTITLE9=日本大学歯学部部歌
TTITLE10=日本大学松戸歯学部学生歌
TTITLE11=日本大学校歌 (インストルメンタル)
EXTD=YEAR: 19970000
EXTT0=
EXTT1=
EXTT2=
EXTT3=
EXTT4=
EXTT5=
EXTT6=
EXTT7=
EXTT8=
EXTT9=
EXTT10=
EXTT11=
PLAYORDER=
